<svg width="26" height="26" viewBox="0 0 26 26" fill="none" xmlns="http://www.w3.org/2000/svg">
<g clip-path="url(#clip0_16_157)">
<path d="M25.9715 12.818C25.9634 12.7839 25.9683 12.7473 25.9553 12.714C25.9504 12.7002 25.9382 12.6929 25.9334 12.6799C25.9252 12.6604 25.9269 12.6384 25.9163 12.6197C23.56 8.10956 18.4307 4.87825 13.0195 4.87825C7.60742 4.87825 2.47892 8.10469 0.121041 12.6141C0.110479 12.6327 0.112104 12.6547 0.103979 12.6742C0.098291 12.6872 0.086916 12.6945 0.082041 12.7083C0.069041 12.7416 0.073916 12.7782 0.065791 12.8123C0.051166 12.8732 0.0373535 12.9317 0.0373535 12.9943C0.0373535 13.0569 0.0519785 13.1146 0.065791 13.1763C0.073916 13.2104 0.069041 13.247 0.082041 13.2803C0.086916 13.2941 0.0991035 13.3014 0.103979 13.3144C0.112104 13.3339 0.110479 13.3559 0.121041 13.3746C2.4781 17.8847 7.60742 21.1161 13.0195 21.1161C18.4307 21.1161 23.56 17.8896 25.9163 13.3802C25.9277 13.3616 25.926 13.3396 25.9334 13.3201C25.9382 13.3071 25.9504 13.2998 25.9553 13.286C25.9683 13.2527 25.9634 13.2161 25.9715 13.182C25.9854 13.1203 26 13.0617 26 13C26 12.9382 25.9854 12.8789 25.9715 12.818ZM13.0187 19.4902C8.45648 19.4902 3.99017 16.8976 1.76473 12.9943C4.00235 9.08619 8.46217 6.50244 13.0187 6.50244C17.5792 6.50244 22.0464 9.09594 24.2718 12.9984C22.0342 16.9073 17.5752 19.4902 13.0187 19.4902ZM13.0187 9.74919C13.2429 9.74919 13.4233 9.93037 13.4233 10.1554C13.4233 10.3789 13.2421 10.5609 13.0187 10.5609V10.5617C11.6748 10.5617 10.582 11.6545 10.582 12.9967C10.582 13.221 10.4 13.403 10.1765 13.403C9.9531 13.403 9.77029 13.221 9.77029 12.9967C9.77029 11.2052 11.2222 9.75325 13.0138 9.75C13.0154 9.75 13.017 9.74919 13.0187 9.74919ZM13 7.3125C9.85804 7.3125 7.31248 9.85888 7.31248 13C7.31248 16.1411 9.85885 18.6875 13 18.6875C16.1403 18.6875 18.6875 16.1403 18.6875 13C18.6875 9.85806 16.1403 7.3125 13 7.3125ZM13 17.875C10.3114 17.875 8.12498 15.6886 8.12498 13C8.12498 10.3114 10.3114 8.125 13 8.125C15.6885 8.125 17.875 10.3114 17.875 13C17.875 15.6886 15.6885 17.875 13 17.875Z" fill="#4F4F4F"/>
</g>
<defs>
<clipPath id="clip0_16_157">
<rect width="26" height="26" fill="white"/>
</clipPath>
</defs>
</svg>
